<svg width="40" height="40" viewBox="0 0 40 40" fill="none" xmlns="http://www.w3.org/2000/svg">
<g clip-path="url(#clip0_471_27)">
<path d="M14.8491 9.33377C8.79592 9.15032 4.72734 8.71953 0.420936 7.80609L0.00553894 7.71797L0.00583295 6.80127C0.00599257 6.29708 0.0389762 5.06229 0.0791734 4.05729L0.152226 2.23002L0.549665 2.28474C7.23722 3.20554 16.0826 3.68406 21.6062 3.42388C28.7553 3.08713 33.4243 2.2473 39.0745 0.281748C39.5129 0.129254 39.8992 0.00448608 39.933 0.00448608C39.9668 0.00448608 39.9945 1.21548 39.9945 2.69558V5.38668L39.7452 5.5188C39.2033 5.80607 36.7297 6.60909 34.7328 7.14604C31.41 8.03949 27.5078 8.767 24.2094 9.10797C21.0116 9.43854 19.5051 9.47488 14.8491 9.33377Z" fill="#F41720" stroke="#F41720" stroke-width="0.0640509"/>
<path d="M14.5945 26.0108C13.4632 25.8739 12.6951 25.5883 11.0396 24.6893C9.38362 23.79 8.57828 23.5151 7.2753 23.4048C5.64851 23.267 3.08907 23.8458 1.07506 24.8071L0.158645 25.2444L0.114868 22.3673L0.0710907 19.4901L0.506511 19.2038C1.28883 18.6895 3.44551 17.9033 4.63437 17.699C6.93166 17.3043 7.7662 17.4717 10.6132 18.8984C13.6476 20.419 16.7995 20.4648 19.7331 19.0309C22.115 17.8667 23.724 17.4557 25.5316 17.5497C26.8462 17.6181 27.9586 17.9936 29.904 19.0256C31.8759 20.0717 33.0895 20.2547 35.4428 19.8608C36.9661 19.6058 37.9825 19.1868 39.0356 18.3796L39.871 17.7393V20.8754V24.0114L39.3619 24.3926C38.6083 24.9569 36.7714 25.6296 35.3788 25.8511C33.2684 26.1869 31.7265 25.8881 29.6831 24.7473C28.1968 23.9175 27.6039 23.6796 26.5867 23.5049C24.5283 23.1513 23.4005 23.3554 20.1961 24.6614C17.0538 25.9422 16.0416 26.186 14.5945 26.0108Z" fill="#14524D" stroke="#F41720" stroke-width="0.0905817"/>
<path d="M7.09069 39.8984L0.0803223 39.864V37.0088V34.1536H19.9757H39.871V37.0736V39.9936L26.986 39.9632C19.8993 39.9465 10.9464 39.9174 7.09069 39.8984Z" fill="#D19719" stroke="#F41720" stroke-width="0.0905817"/>
</g>
<defs>
<clipPath id="clip0_471_27">
<rect width="40" height="40" fill="white"/>
</clipPath>
</defs>
</svg>
