<svg width="16" height="17" viewBox="0 0 16 17" fill="none" xmlns="http://www.w3.org/2000/svg">
<path d="M2.56072 9.45142H11.2499C11.6641 9.45142 11.9999 9.05343 11.9999 8.56253C11.9999 8.07163 11.6641 7.67364 11.2499 7.67364H2.56072L3.53042 6.52437C3.82331 6.17724 3.82331 5.61445 3.53042 5.26731C3.23757 4.92017 2.76267 4.92017 2.46977 5.26731L0.219875 7.93391C0.202325 7.95471 0.185725 7.97652 0.170025 7.99927C0.163175 8.00917 0.157225 8.01966 0.150775 8.02979C0.142525 8.04283 0.134025 8.05557 0.126375 8.06914C0.119376 8.08152 0.113326 8.09438 0.106926 8.10707C0.100776 8.11927 0.0943256 8.13118 0.0886756 8.14375C0.0827756 8.15678 0.0778256 8.17018 0.0725257 8.18345C0.0673257 8.19643 0.0618757 8.20923 0.0572257 8.2225C0.0527257 8.23548 0.0490257 8.24869 0.0450757 8.26185C0.0407258 8.27607 0.0361258 8.29012 0.0324258 8.30463C0.0290758 8.31779 0.0266258 8.33112 0.0238258 8.34446C0.0206758 8.35921 0.0171758 8.37391 0.0146758 8.38896C0.0121258 8.40431 0.0105759 8.41983 0.00872586 8.4353C0.00712586 8.44852 0.00497587 8.46155 0.00387587 8.47494C0.00147588 8.50363 0.000225885 8.53249 0.000175885 8.56129C0.000175885 8.5617 0.000125885 8.56217 0.000125885 8.56259C0.000125885 8.563 0.000175885 8.56348 0.000175885 8.56389C0.000225885 8.59275 0.00147588 8.62155 0.00387587 8.65029C0.00497587 8.66351 0.00707586 8.67637 0.00862586 8.68946C0.0105259 8.70511 0.0120758 8.72075 0.0146758 8.73628C0.0171758 8.75121 0.0206258 8.76567 0.0237758 8.78031C0.0266258 8.79376 0.0291258 8.80733 0.0325258 8.82066C0.0361758 8.83494 0.0407258 8.84875 0.0449257 8.86274C0.0489757 8.87613 0.0526757 8.88958 0.0572757 8.90274C0.0618257 8.91577 0.0671757 8.92828 0.0722757 8.94102C0.0776756 8.95459 0.0827756 8.96828 0.0887756 8.98161C0.0942756 8.99376 0.100526 9.00531 0.106476 9.01711C0.113026 9.0302 0.119276 9.04342 0.126476 9.05616C0.133775 9.06914 0.141925 9.08128 0.149775 9.09379C0.156575 9.10451 0.162875 9.11559 0.170125 9.12602C0.185075 9.14759 0.200925 9.16828 0.217475 9.18813C0.218275 9.18908 0.218925 9.19014 0.219725 9.19109L2.46972 11.8578C2.61622 12.0314 2.80812 12.1182 3.00007 12.1182C3.19197 12.1181 3.38397 12.0314 3.53037 11.8579C3.82326 11.5107 3.82326 10.9479 3.53042 10.6008L2.56072 9.45142Z" fill="#FF6D6D"/>
<path d="M15.2501 0.5625H5.7501C5.3359 0.5625 5.0001 0.960484 5.0001 1.45139V5.00693C5.0001 5.49783 5.3359 5.89581 5.7501 5.89581C6.1643 5.89581 6.5001 5.49783 6.5001 5.00693V2.34027H14.5001V14.7847H6.5001V12.118C6.5001 11.6271 6.1643 11.2291 5.7501 11.2291C5.3359 11.2291 5.0001 11.6271 5.0001 12.118V15.6736C5.0001 16.1645 5.3359 16.5625 5.7501 16.5625H15.2501C15.6643 16.5625 16.0001 16.1645 16.0001 15.6736V1.45139C16.0001 0.960484 15.6643 0.5625 15.2501 0.5625Z" fill="#FF6D6D"/>
</svg>
